HIERARCHY
ROOT Hips
{
    OFFSET 0.000000 97.120003 0.000000
    CHANNELS 6 Xposition Yposition Zposition Yrotation Xrotation Zrotation
    JOINT RightUpLeg
    {
        OFFSET -11.000000 -0.000000 0.000000
        CHANNELS 3 Yrotation Xrotation Zrotation
        JOINT RightLeg
        {
            OFFSET 0.000000 -45.062000 0.000000
            CHANNELS 3 Yrotation Xrotation Zrotation
            JOINT RightFoot
            {
                OFFSET 0.000000 -42.057999 0.000000
                CHANNELS 3 Yrotation Xrotation Zrotation
                End Site
                {
                    OFFSET 0.000000 -10.000000 15.120000
                }
            }
        }
    }
    JOINT LeftUpLeg
    {
        OFFSET 11.000000 -0.000000 0.000000
        CHANNELS 3 Yrotation Xrotation Zrotation
        JOINT LeftLeg
        {
            OFFSET 0.000000 -45.062000 0.000000
            CHANNELS 3 Yrotation Xrotation Zrotation
            JOINT LeftFoot
            {
                OFFSET 0.000000 -42.057999 0.000000
                CHANNELS 3 Yrotation Xrotation Zrotation
                End Site
                {
                    OFFSET 0.000000 -10.000000 15.120000
                }
            }
        }
    }
    JOINT Spine
    {
        OFFSET 0.000000 8.120000 0.000000
        CHANNELS 3 Yrotation Xrotation Zrotation
        JOINT Spine1
        {
            OFFSET 0.000000 17.980000 0.000000
            CHANNELS 3 Yrotation Xrotation Zrotation
            JOINT Spine2
            {
                OFFSET 0.000000 12.760000 0.000000
                CHANNELS 3 Yrotation Xrotation Zrotation
                JOINT Neck
                {
                    OFFSET 0.000000 19.139999 0.000000
                    CHANNELS 3 Yrotation Xrotation Zrotation
                    JOINT Neck1
                    {
                        OFFSET 0.000000 4.250000 0.000000
                        CHANNELS 3 Yrotation Xrotation Zrotation
                        JOINT Head
                        {
                            OFFSET 0.000000 4.250000 0.000000
                            CHANNELS 3 Yrotation Xrotation Zrotation
                            End Site
                            {
                                OFFSET 0.000000 19.120001 0.000000
                            }
                        }
                    }
                }
                JOINT RightShoulder
                {
                    OFFSET -2.900000 13.340000 0.000000
                    CHANNELS 3 Yrotation Xrotation Zrotation
                    JOINT RightArm
                    {
                        OFFSET -16.100000 0.000000 0.000000
                        CHANNELS 3 Yrotation Xrotation Zrotation
                        JOINT RightForeArm
                        {
                            OFFSET -28.000000 0.000000 0.000000
                            CHANNELS 3 Yrotation Xrotation Zrotation
                            JOINT RightHand
                            {
                                OFFSET -26.000000 0.000000 0.000000
                                CHANNELS 3 Yrotation Xrotation Zrotation
                                JOINT RightHandThumb1
                                {
                                    OFFSET -1.937000 -0.484000 2.518000
                                    CHANNELS 3 Yrotation Xrotation Zrotation
                                    JOINT RightHandThumb2
                                    {
                                        OFFSET -3.872000 0.000000 0.000000
                                        CHANNELS 3 Yrotation Xrotation Zrotation
                                        JOINT RightHandThumb3
                                        {
                                            OFFSET -2.690000 0.000000 0.000000
                                            CHANNELS 3 Yrotation Xrotation Zrotation
                                            End Site
                                            {
                                                OFFSET -2.537000 0.000000 0.000000
                                            }
                                        }
                                    }
                                }
                                JOINT RightInHandIndex
                                {
                                    OFFSET -3.389000 0.535000 2.080000
                                    CHANNELS 3 Yrotation Xrotation Zrotation
                                    JOINT RightHandIndex1
                                    {
                                        OFFSET -5.485000 -0.096000 1.051000
                                        CHANNELS 3 Yrotation Xrotation Zrotation
                                        JOINT RightHandIndex2
                                        {
                                            OFFSET -3.806000 0.000000 0.000000
                                            CHANNELS 3 Yrotation Xrotation Zrotation
                                            JOINT RightHandIndex3
                                            {
                                                OFFSET -2.158000 0.000000 0.000000
                                                CHANNELS 3 Yrotation Xrotation Zrotation
                                                End Site
                                                {
                                                    OFFSET -1.898000 0.000000 0.000000
                                                }
                                            }
                                        }
                                    }
                                }
                                JOINT RightInHandMiddle
                                {
                                    OFFSET -3.556000 0.544000 0.796000
                                    CHANNELS 3 Yrotation Xrotation Zrotation
                                    JOINT RightHandMiddle1
                                    {
                                        OFFSET -5.441000 -0.088000 0.330000
                                        CHANNELS 3 Yrotation Xrotation Zrotation
                                        JOINT RightHandMiddle2
                                        {
                                            OFFSET -4.153000 0.000000 0.000000
                                            CHANNELS 3 Yrotation Xrotation Zrotation
                                            JOINT RightHandMiddle3
                                            {
                                                OFFSET -2.603000 0.000000 0.000000
                                                CHANNELS 3 Yrotation Xrotation Zrotation
                                                End Site
                                                {
                                                    OFFSET -2.076000 0.000000 0.000000
                                                }
                                            }
                                        }
                                    }
                                }
                                JOINT RightInHandRing
                                {
                                    OFFSET -3.539000 0.566000 -0.136000
                                    CHANNELS 3 Yrotation Xrotation Zrotation
                                    JOINT RightHandRing1
                                    {
                                        OFFSET -4.873000 -0.023000 -0.504000
                                        CHANNELS 3 Yrotation Xrotation Zrotation
                                        JOINT RightHandRing2
                                        {
                                            OFFSET -3.619000 0.000000 0.000000
                                            CHANNELS 3 Yrotation Xrotation Zrotation
                                            JOINT RightHandRing3
                                            {
                                                OFFSET -2.511000 0.000000 0.000000
                                                CHANNELS 3 Yrotation Xrotation Zrotation
                                                End Site
                                                {
                                                    OFFSET -1.952000 0.000000 0.000000
                                                }
                                            }
                                        }
                                    }
                                }
                                JOINT RightInHandPinky
                                {
                                    OFFSET -3.324000 0.494000 -1.264000
                                    CHANNELS 3 Yrotation Xrotation Zrotation
                                    JOINT RightHandPinky1
                                    {
                                        OFFSET -4.354000 -0.023000 -1.147000
                                        CHANNELS 3 Yrotation Xrotation Zrotation
                                        JOINT RightHandPinky2
                                        {
                                            OFFSET -2.898000 0.000000 0.000000
                                            CHANNELS 3 Yrotation Xrotation Zrotation
                                            JOINT RightHandPinky3
                                            {
                                                OFFSET -1.831000 0.000000 0.000000
                                                CHANNELS 3 Yrotation Xrotation Zrotation
                                                End Site
                                                {
                                                    OFFSET -1.730000 0.000000 0.000000
                                                }
                                            }
                                        }
                                    }
                                }
                            }
                        }
                    }
                }
                JOINT LeftShoulder
                {
                    OFFSET 2.900000 13.340000 0.000000
                    CHANNELS 3 Yrotation Xrotation Zrotation
                    JOINT LeftArm
                    {
                        OFFSET 16.100000 0.000000 0.000000
                        CHANNELS 3 Yrotation Xrotation Zrotation
                        JOINT LeftForeArm
                        {
                            OFFSET 28.000000 0.000000 0.000000
                            CHANNELS 3 Yrotation Xrotation Zrotation
                            JOINT LeftHand
                            {
                                OFFSET 26.000000 0.000000 0.000000
                                CHANNELS 3 Yrotation Xrotation Zrotation
                                JOINT LeftHandThumb1
                                {
                                    OFFSET 1.937000 -0.484000 2.518000
                                    CHANNELS 3 Yrotation Xrotation Zrotation
                                    JOINT LeftHandThumb2
                                    {
                                        OFFSET 3.872000 0.000000 0.000000
                                        CHANNELS 3 Yrotation Xrotation Zrotation
                                        JOINT LeftHandThumb3
                                        {
                                            OFFSET 2.690000 0.000000 0.000000
                                            CHANNELS 3 Yrotation Xrotation Zrotation
                                            End Site
                                            {
                                                OFFSET 2.537000 0.000000 0.000000
                                            }
                                        }
                                    }
                                }
                                JOINT LeftInHandIndex
                                {
                                    OFFSET 3.389000 0.535000 2.080000
                                    CHANNELS 3 Yrotation Xrotation Zrotation
                                    JOINT LeftHandIndex1
                                    {
                                        OFFSET 5.485000 -0.096000 1.051000
                                        CHANNELS 3 Yrotation Xrotation Zrotation
                                        JOINT LeftHandIndex2
                                        {
                                            OFFSET 3.806000 0.000000 0.000000
                                            CHANNELS 3 Yrotation Xrotation Zrotation
                                            JOINT LeftHandIndex3
                                            {
                                                OFFSET 2.158000 0.000000 0.000000
                                                CHANNELS 3 Yrotation Xrotation Zrotation
                                                End Site
                                                {
                                                    OFFSET 1.898000 0.000000 0.000000
                                                }
                                            }
                                        }
                                    }
                                }
                                JOINT LeftInHandMiddle
                                {
                                    OFFSET 3.556000 0.544000 0.796000
                                    CHANNELS 3 Yrotation Xrotation Zrotation
                                    JOINT LeftHandMiddle1
                                    {
                                        OFFSET 5.441000 -0.088000 0.330000
                                        CHANNELS 3 Yrotation Xrotation Zrotation
                                        JOINT LeftHandMiddle2
                                        {
                                            OFFSET 4.153000 0.000000 0.000000
                                            CHANNELS 3 Yrotation Xrotation Zrotation
                                            JOINT LeftHandMiddle3
                                            {
                                                OFFSET 2.603000 0.000000 0.000000
                                                CHANNELS 3 Yrotation Xrotation Zrotation
                                                End Site
                                                {
                                                    OFFSET 2.076000 0.000000 0.000000
                                                }
                                            }
                                        }
                                    }
                                }
                                JOINT LeftInHandRing
                                {
                                    OFFSET 3.539000 0.566000 -0.136000
                                    CHANNELS 3 Yrotation Xrotation Zrotation
                                    JOINT LeftHandRing1
                                    {
                                        OFFSET 4.873000 -0.023000 -0.504000
                                        CHANNELS 3 Yrotation Xrotation Zrotation
                                        JOINT LeftHandRing2
                                        {
                                            OFFSET 3.619000 0.000000 0.000000
                                            CHANNELS 3 Yrotation Xrotation Zrotation
                                            JOINT LeftHandRing3
                                            {
                                                OFFSET 2.511000 0.000000 0.000000
                                                CHANNELS 3 Yrotation Xrotation Zrotation
                                                End Site
                                                {
                                                    OFFSET 1.952000 0.000000 0.000000
                                                }
                                            }
                                        }
                                    }
                                }
                                JOINT LeftInHandPinky
                                {
                                    OFFSET 3.324000 0.494000 -1.264000
                                    CHANNELS 3 Yrotation Xrotation Zrotation
                                    JOINT LeftHandPinky1
                                    {
                                        OFFSET 4.354000 -0.023000 -1.147000
                                        CHANNELS 3 Yrotation Xrotation Zrotation
                                        JOINT LeftHandPinky2
                                        {
                                            OFFSET 2.898000 0.000000 0.000000
                                            CHANNELS 3 Yrotation Xrotation Zrotation
                                            JOINT LeftHandPinky3
                                            {
                                                OFFSET 1.831000 0.000000 0.000000
                                                CHANNELS 3 Yrotation Xrotation Zrotation
                                                End Site
                                                {
                                                    OFFSET 1.730000 0.000000 0.000000
                                                }
                                            }
                                        }
                                    }
                                }
                            }
                        }
                    }
                }
            }
        }
    }
}
MOTION
Frames: 4
Frame Time: 0.011111
0.000000 97.119995 0.000000 0.000000 0.000000 0.000000 0.000000 0.000000 0.000000 0.000000 0.000000 0.000000 0.000000 0.000000 0.000000 0.000000 0.000000 0.000000 0.000000 0.000000 0.000000 0.000000 0.000000 0.000000 0.000000 0.000000 0.000000 0.000000 0.000000 0.000000 0.000000 0.000000 0.000000 0.000000 0.000000 0.000000 0.000000 0.000000 0.000000 0.000000 0.000000 0.000000 0.000000 0.000000 0.000000 0.000000 0.000000 0.000000 0.000000 0.000000 0.000000 0.000000 0.000000 0.000000 0.000000 0.000000 0.000000 0.000000 0.000000 0.000000 0.000000 0.000000 0.000000 0.000000 0.000000 0.000000 0.000000 0.000000 0.000000 0.000000 0.000000 0.000000 0.000000 0.000000 0.000000 0.000000 0.000000 0.000000 0.000000 0.000000 0.000000 0.000000 0.000000 0.000000 0.000000 0.000000 0.000000 0.000000 0.000000 0.000000 0.000000 0.000000 0.000000 0.000000 0.000000 0.000000 0.000000 0.000000 0.000000 0.000000 0.000000 0.000000 0.000000 0.000000 0.000000 0.000000 0.000000 0.000000 0.000000 0.000000 0.000000 0.000000 0.000000 0.000000 0.000000 0.000000 0.000000 0.000000 0.000000 0.000000 0.000000 0.000000 0.000000 0.000000 0.000000 0.000000 0.000000 0.000000 0.000000 0.000000 0.000000 0.000000 0.000000 0.000000 0.000000 0.000000 0.000000 0.000000 0.000000 0.000000 0.000000 0.000000 0.000000 0.000000 0.000000 0.000000 0.000000 0.000000 0.000000 0.000000 0.000000 0.000000 0.000000 0.000000 0.000000 0.000000 0.000000 0.000000 0.000000 0.000000 0.000000 0.000000 0.000000 0.000000 0.000000 0.000000 0.000000 0.000000 0.000000 0.000000 0.000000 0.000000 0.000000 0.000000 0.000000 0.000000 0.000000 0.000000 0.000000 0.000000
0.163609 97.394020 -1.034038 178.532272 175.725586 178.125702 9.971998 -3.897914 2.750177 167.540192 177.117996 179.839584 0.552283 -10.408840 -2.456074 8.223530 -1.046256 3.182193 176.834503 -179.924774 177.423874 177.367599 -170.183121 -173.692841 1.499395 0.540398 0.065144 1.499260 0.529080 0.098510 6.995210 0.356214 0.188643 180.000000 -179.359238 -179.592377 0.000001 -0.747561 0.422183 167.003922 -179.518219 -179.634689 0.442812 0.408276 1.247986 9.367188 -7.403565 88.473335 177.846756 179.106796 178.961929 176.658630 -175.667114 173.883377 53.836918 42.428509 8.013570 0.000010 0.000001 5.167691 0.000003 -0.000002 3.441686 180.000000 180.000000 -180.000000 14.999997 0.000006 25.821548 0.000000 -0.000002 21.126740 180.000000 -180.000000 -165.211288 180.000000 180.000000 -180.000000 0.000000 -0.000000 30.822481 0.000001 0.000000 30.822479 180.000000 180.000000 -159.472260 180.000000 180.000000 -180.000000 170.000000 -180.000000 -153.520493 0.000000 -0.000000 26.479513 180.000000 180.000000 -162.364655 180.000000 180.000000 -180.000000 160.000015 179.999985 -166.381470 0.000001 -0.000002 20.427797 180.000000 179.999985 -166.395081 172.040710 -178.041504 -179.101685 160.662399 -172.288605 95.132286 3.081906 -0.222765 2.586559 0.449372 7.218873 0.931572 132.370682 126.996819 173.188400 180.000000 -179.999985 174.680222 180.000000 -180.000000 176.457016 0.000001 0.000001 0.000000 165.000015 180.000000 160.151779 0.000002 -0.000005 -16.239473 0.000005 -0.000003 -11.367614 0.000001 0.000001 0.000000 0.000004 -0.000000 -23.383465 0.000003 0.000001 -23.383459 180.000000 -180.000000 164.426620 0.000001 0.000001 0.000000 10.000001 -0.000001 -24.057503 0.000000 -0.000001 -24.057495 0.000002 0.000000 -16.022295 0.000001 0.000001 0.000000 20.000002 0.000002 -19.434175 180.000000 -180.000000 150.848724 180.000000 -179.999985 160.585266
0.169003 97.340866 -1.032319 178.524323 175.730515 178.126648 9.963242 -3.888998 2.748013 167.555756 177.122269 179.840729 0.555086 -10.408952 -2.452894 8.218996 -1.038972 3.178226 176.838730 -179.927216 177.424881 177.373108 -170.178635 -173.688385 1.500281 0.543284 0.064867 1.499481 0.531963 0.097790 6.996241 0.358448 0.188073 0.000001 -0.647929 0.412314 180.000000 -179.244095 -179.572952 166.995636 -179.512909 -179.630447 0.440001 0.390941 1.237127 9.372565 -7.387470 88.484970 177.830124 179.098785 178.957886 176.653687 -175.667892 173.881714 53.847969 42.435120 8.026797 180.000000 179.999985 -174.833267 180.000000 -180.000000 -176.558960 180.000000 180.000000 -180.000000 14.999990 0.000003 25.828049 0.000000 0.000003 21.132053 0.000001 0.000003 14.792436 180.000000 180.000000 -180.000000 0.000000 0.000003 30.822268 180.000000 -180.000000 -149.177719 0.000003 -0.000001 20.527647 180.000000 180.000000 -180.000000 170.000000 180.000000 -153.520325 0.000004 0.000000 26.479671 180.000000 180.000000 -162.364532 180.000000 180.000000 -180.000000 160.000015 -180.000000 -166.384033 0.000003 -0.000002 20.423992 0.000000 0.000002 13.602382 172.030945 -178.029434 -179.075943 160.643372 -172.282394 95.114014 3.070013 -0.224570 2.587186 0.454827 7.218765 0.931618 132.369049 126.996124 173.194977 0.000000 -0.000003 -5.315556 179.999985 179.999985 176.459839 180.000000 -180.000000 179.999985 165.000000 -180.000000 160.154968 0.000004 0.000004 -16.236826 180.000000 -179.999985 168.634201 180.000000 -180.000000 179.999985 180.000000 -180.000000 156.611298 0.000002 -0.000002 -23.388706 0.000001 0.000002 -15.576875 180.000000 -180.000000 179.999985 10.000002 0.000005 -24.059103 179.999985 -180.000000 155.940872 180.000000 -179.999985 163.976624 180.000000 -180.000000 179.999985 20.000002 -0.000005 -19.435675 0.000003 0.000001 -29.153492 180.000000 180.000000 160.583771
0.177104 97.326973 -1.029439 178.514664 175.734787 178.124664 9.950424 -3.880415 2.744217 167.578720 177.124680 179.846313 0.554978 -10.407719 -2.449943 8.211615 -1.032324 3.175468 176.844254 -179.931564 177.424301 177.383636 -170.170105 -173.678680 1.500604 0.546691 0.064669 1.499343 0.535257 0.097748 6.995599 0.360835 0.188403 180.000000 -179.344299 -179.582870 0.000001 -0.764982 0.432023 166.985245 -179.507095 -179.626007 0.440731 0.369294 1.224149 9.380161 -7.366891 88.499924 177.817871 179.095749 178.952148 176.651337 -175.658585 173.882080 53.840950 42.436611 8.020729 180.000000 -179.999985 -174.833008 179.999985 -179.999985 -176.558792 0.000000 -0.000000 0.000000 15.000000 0.000001 25.828257 180.000000 -180.000000 -158.867813 180.000000 180.000000 -165.207458 0.000000 -0.000000 0.000000 0.000001 0.000005 30.830240 0.000002 -0.000000 30.830240 180.000000 179.999985 -159.467056 0.000000 -0.000000 0.000000 170.000000 -179.999985 -153.521347 180.000000 -179.999985 -153.521378 180.000000 -180.000000 -162.365234 0.000000 -0.000000 0.000000 160.000015 180.000000 -166.382980 0.000001 -0.000004 20.425524 180.000000 -180.000000 -166.396606 172.022980 -178.014038 -179.051819 160.638489 -172.281128 95.095345 3.054950 -0.221829 2.585475 0.459171 7.220522 0.936937 132.377777 126.996819 173.194382 179.999985 179.999985 174.679672 0.000004 -0.000010 -3.543341 0.000001 0.000001 0.000000 165.000015 -179.999985 160.160904 180.000000 179.999985 163.768005 0.000002 0.000007 -11.362381 0.000001 0.000001 0.000000 180.000000 179.999985 156.619980 180.000000 -179.999985 156.619965 180.000000 -180.000000 164.428909 0.000001 0.000001 0.000000 9.999994 -0.000006 -24.062185 0.000001 0.000001 -24.062157 180.000000 -179.999985 163.974594 0.000001 0.000001 0.000000 20.000000 -0.000007 -19.440002 180.000000 -179.999985 150.839996 180.000000 -180.000000 160.579422
